<?xml version="1.0" encoding="UTF-8"?>
<svg version="1.1" xmlns="http://www.w3.org/2000/svg" width="180" height="180">
<path d="M0 0 C59.4 0 118.8 0 180 0 C180 59.4 180 118.8 180 180 C120.6 180 61.2 180 0 180 C0 120.6 0 61.2 0 0 Z " fill="#000000" transform="translate(0,0)"/>
<path d="M0 0 C28.05 0 56.1 0 85 0 C85 8.91 85 17.82 85 27 C82.69 27 80.38 27 78 27 C76.35 21.06 74.7 15.12 73 9 C59.14 8.67 45.28 8.34 31 8 C31 22.19 31 36.38 31 51 C39.91 50.67 48.82 50.34 58 50 C59.65 45.05 61.3 40.1 63 35 C64.98 35 66.96 35 69 35 C69 48.2 69 61.4 69 75 C67.02 75 65.04 75 63 75 C61.68 69.72 60.36 64.44 59 59 C49.76 59 40.52 59 31 59 C31 74.51 31 90.02 31 106 C47.17 106 63.34 106 80 106 C80.66 102.7 81.32 99.4 82 96 C82.52319579 93.7872178 83.06147826 91.57785772 83.625 89.375 C83.88539062 88.35148437 84.14578125 87.32796875 84.4140625 86.2734375 C84.60742188 85.52320312 84.80078125 84.77296875 85 84 C87.31 84 89.62 84 92 84 C92 93.9 92 103.8 92 114 C61.64 114 31.28 114 0 114 C0 112.35 0 110.7 0 109 C0.92683594 108.72285156 1.85367188 108.44570312 2.80859375 108.16015625 C4.60490234 107.61681641 4.60490234 107.61681641 6.4375 107.0625 C8.22994141 106.52302734 8.22994141 106.52302734 10.05859375 105.97265625 C12.85867545 105.29110858 12.85867545 105.29110858 14 104 C14.09525367 101.07805335 14.12552736 98.17979671 14.11352539 95.25756836 C14.11367142 94.3405867 14.11381744 93.42360504 14.1139679 92.47883606 C14.1132684 89.43248164 14.10547428 86.38618755 14.09765625 83.33984375 C14.0957922 81.23377007 14.09436824 79.12769597 14.09336853 77.0216217 C14.08954231 71.46657117 14.07971114 65.91154659 14.06866455 60.35650635 C14.05845267 54.6927526 14.05387139 49.02899467 14.04882812 43.36523438 C14.03808896 32.24347815 14.0210113 21.12174123 14 10 C8.63028158 7.63038739 8.63028158 7.63038739 3.0625 5.8125 C2.051875 5.544375 1.04125 5.27625 0 5 C0 3.35 0 1.7 0 0 Z " fill="#F6F6F6" transform="translate(44,33)"/>
</svg>
